<?xml version="1.0" standalone="no"?>
<!DOCTYPE svg PUBLIC "-//W3C//DTD SVG 20010904//EN"
 "http://www.w3.org/TR/2001/REC-SVG-20010904/DTD/svg10.dtd">
<svg version="1.0" xmlns="http://www.w3.org/2000/svg"
 width="2000.000000pt" height="2000.000000pt" viewBox="0 0 2000.000000 2000.000000"
 preserveAspectRatio="xMidYMid meet">

<g transform="translate(0.000000,2000.000000) scale(0.100000,-0.100000)"
fill="#000000" stroke="none">
<path d="M12124 12616 c-1103 -816 -1758 -1304 -1761 -1313 -2 -5 56 -77 130
-159 73 -82 286 -320 472 -528 187 -209 383 -428 435 -486 143 -161 367 -407
535 -589 198 -214 262 -288 268 -312 4 -14 2 -18 -6 -11 -55 43 -2033 1587
-3727 2910 -842 657 -885 690 -896 669 -6 -12 -319 -751 -694 -1642 -376 -891
-903 -2140 -1171 -2775 -268 -635 -485 -1156 -484 -1158 2 -2 137 70 302 159
164 89 350 190 413 224 1914 1037 3590 1950 3589 1954 -1 13 -791 656 -802
653 -6 -2 -378 -240 -827 -529 -996 -643 -931 -602 -900 -571 14 14 352 312
752 662 400 350 729 640 732 644 2 4 -53 54 -123 112 -400 329 -479 395 -476
398 5 5 87 -20 110 -34 11 -6 421 -229 910 -494 1465 -794 2373 -1287 4423
-2399 794 -431 1445 -782 1447 -780 3 4 -120 298 -932 2229 -447 1063 -1069
2546 -1254 2987 -90 216 -167 393 -170 393 -3 0 -135 -96 -295 -214z"/>
</g>
</svg>
